<svg width="184" height="80" viewBox="0 0 184 80" fill="none" xmlns="http://www.w3.org/2000/svg">
<path d="M91.9295 79.8858C107.29 79.8858 119.742 67.3919 119.742 51.98C119.742 36.5681 107.29 24.0742 91.9295 24.0742C76.5692 24.0742 64.1172 36.5681 64.1172 51.98C64.1172 67.3919 76.5692 79.8858 91.9295 79.8858Z" fill="#FFDE00"/>
<path d="M38.9941 52.2637C38.9941 49.9205 39.2772 47.6483 39.9141 45.447C40.4803 43.2458 41.4003 41.2576 42.4618 39.3404C43.5941 37.4232 44.868 35.7191 46.4249 34.1569C47.9818 32.5948 49.6803 31.2456 51.5911 30.1805C53.5018 29.1154 55.4834 28.1923 57.6772 27.6243C59.8711 26.9852 62.0649 26.7012 64.4711 26.7012C66.8065 26.7012 69.0711 26.9852 71.1941 27.6243C73.388 28.2633 75.3695 29.1154 77.2803 30.1805C79.1911 31.2456 80.8895 32.5948 82.4465 34.1569C84.0034 35.7191 85.348 37.4232 86.4095 39.3404C87.5418 41.2576 88.3911 43.2458 88.9572 45.447C89.5941 47.6483 89.8772 49.8495 89.8772 52.2637C89.8772 54.6069 89.5941 56.8792 88.9572 59.0804C88.3203 61.2816 87.4711 63.2698 86.4095 65.116C85.2772 66.9622 84.0034 68.7373 82.4465 70.2285C80.8895 71.7906 79.1911 73.0688 77.2803 74.2049C75.3695 75.341 73.388 76.1931 71.1941 76.7611C69.0003 77.3292 66.8065 77.6842 64.4711 77.6842C62.1357 77.6842 59.8711 77.4002 57.6772 76.7611C55.4834 76.1931 53.5018 75.341 51.5911 74.2049C49.6803 73.0688 47.9818 71.7906 46.4249 70.2285C44.868 68.6663 43.5941 66.9622 42.4618 65.116C41.3295 63.2698 40.4803 61.2106 39.9141 59.0804C39.2772 56.8792 38.9941 54.6069 38.9941 52.2637ZM51.8741 52.1927C51.8741 54.0389 52.1572 55.7431 52.7941 57.3762C53.4311 59.0094 54.2803 60.3585 55.4126 61.5656C56.5449 62.7728 57.8188 63.6958 59.3757 64.3349C60.9326 65.045 62.5603 65.329 64.4003 65.329C66.2403 65.329 67.9388 64.974 69.4957 64.3349C71.0526 63.6248 72.3265 62.7017 73.4588 61.5656C74.5911 60.3585 75.4403 59.0094 76.0772 57.3762C76.7141 55.7431 76.9972 54.0389 76.9972 52.1927C76.9972 50.3465 76.7141 48.6423 76.0772 47.0092C75.4403 45.376 74.5911 44.0269 73.4588 42.8198C72.3265 41.6127 70.9818 40.6896 69.4957 39.9795C67.9388 39.2694 66.2403 38.9144 64.4003 38.9144C62.5603 38.9144 60.8618 39.2694 59.3757 39.9795C57.8188 40.6896 56.5449 41.6127 55.4126 42.8198C54.2803 44.0269 53.4311 45.447 52.7941 47.0092C52.1572 48.7134 51.8741 50.4175 51.8741 52.1927Z" fill="white"/>
<path d="M8.20923 61.141C8.20923 61.141 9.05846 61.9221 9.62462 62.4191C10.1908 62.9162 10.8985 63.4842 11.6062 63.9813C12.7385 64.7623 13.8708 65.3304 14.9323 65.7564C17.9046 66.8925 20.0985 66.4665 21.3015 66.1115C22.6462 65.6854 23.7077 64.8333 24.0615 63.7682C24.4154 62.7741 24.4862 61.496 23.7077 60.1469C23.2831 59.5078 22.3631 58.7977 21.6554 58.3717C20.8769 57.9457 20.0985 57.5906 19.32 57.3066C18.4708 57.0226 17.7631 56.7385 17.1969 56.5255C14.5077 55.6024 12.2431 54.6083 10.1908 53.5432C8.20923 52.4781 6.51077 51.271 5.23692 49.9219C3.89231 48.5727 2.90154 47.1526 2.26462 45.5904C1.62769 44.0283 1.27385 42.2531 1.27385 40.2649C1.27385 38.2057 1.69846 36.2885 2.54769 34.6553C3.39692 32.9512 4.52923 31.531 6.08615 30.3239C7.64308 29.1168 9.48308 28.1937 11.6769 27.5546C13.8708 26.9156 16.2769 26.5605 18.9662 26.5605C20.9477 26.5605 22.9292 26.7736 24.7692 27.2706C26.6092 27.6967 28.4492 28.4777 30.2185 29.4718C30.9969 29.8979 31.7046 30.3949 32.3415 30.821C33.0492 31.318 33.6154 31.7441 34.1108 32.1701C34.3231 32.3121 34.8185 32.9512 34.8185 32.9512L26.68 40.975C26.68 40.975 25.6892 40.2649 25.1231 39.8389C24.5569 39.4128 22.5046 38.2057 21.3723 37.7797C19.6031 37.2116 17.8338 37.1406 16.6308 37.6376C15.1446 38.2057 14.1538 39.5548 14.2246 40.975C14.2954 42.6081 15.7815 43.5312 16.8431 44.0993C18.1169 44.8094 20.3108 45.6614 21.5138 46.0165C23.8492 46.7976 26.0431 47.5786 28.0246 48.5017C30.0062 49.3538 31.7046 50.3479 33.1908 51.555C34.6062 52.6911 35.7385 54.1113 36.5877 55.7444C37.3662 57.3776 37.7908 59.3658 37.7908 61.638C37.7908 64.0523 37.2954 66.3245 36.3046 68.3127C35.3138 70.3009 33.9692 72.0051 32.2 73.4252C30.4308 74.8453 28.4492 75.9104 26.0431 76.6915C23.7077 77.4726 21.16 77.8276 18.4708 77.8276C15.9231 77.8276 13.4462 77.4016 10.9692 76.4785C8.49231 75.5554 6.36923 74.3483 4.10462 72.6441C1.06154 70.3719 0 68.8807 0 68.8807L8.20923 61.141Z" fill="white"/>
<path d="M17.6215 14.1328L19.7446 15.2689C19.0369 16.689 18.2585 17.7541 17.2677 18.6062C16.3477 19.4583 15.2862 20.0974 14.1538 20.5234C13.0215 20.9495 11.6769 21.1625 10.2615 21.1625C7.00615 21.1625 4.52923 20.0974 2.68923 17.9672C0.92 15.908 0 13.4937 0 10.8665C0 8.31021 0.778462 6.10899 2.33538 4.1208C4.24615 1.56454 6.86462 0.357422 10.1908 0.357422C13.5877 0.357422 16.2769 1.63555 18.2585 4.1918C19.6738 6.03799 20.4523 8.2392 20.4523 11.0085H2.61846C2.68923 13.3517 3.39692 15.1979 4.81231 16.689C6.22769 18.1802 7.99692 18.8903 10.0492 18.8903C11.04 18.8903 12.0308 18.7482 13.0215 18.3932C13.9415 18.0382 14.7908 17.5411 15.4277 16.9731C16.1354 16.334 16.8431 15.4109 17.6215 14.1328ZM17.6215 8.73625C17.2677 7.38712 16.7723 6.25101 16.1354 5.46993C15.4985 4.68885 14.6492 3.97878 13.5877 3.48173C12.5262 2.98468 11.3938 2.70065 10.1908 2.70065C8.28 2.70065 6.58154 3.33972 5.16615 4.61784C4.17538 5.54094 3.39692 6.89007 2.83077 8.73625H17.6215Z" fill="white"/>
<path d="M76.2896 25.3509H78.9788L89.7358 0.853516H86.9758L80.3942 16.12L73.6004 0.853516H70.9111L79.0496 19.2443L76.2896 25.3509Z" fill="white"/>
<path d="M44.5844 0.854471V4.61784C42.6736 2.06159 39.6305 0.357422 36.1628 0.357422C30.4305 0.357422 25.7598 4.97288 25.7598 10.7955C25.7598 16.547 30.4305 21.2335 36.1628 21.2335C39.6305 21.2335 42.6736 19.5293 44.5844 16.9731V20.7364H47.1321V0.854471H44.5844ZM36.1628 18.6062C31.8459 18.6062 28.3782 15.1269 28.3782 10.7955C28.3782 6.46403 31.8459 2.98468 36.1628 2.98468C40.4798 2.98468 43.9475 6.46403 43.9475 10.7955C43.9475 15.0559 40.4798 18.6062 36.1628 18.6062Z" fill="white"/>
<path d="M132.551 26.4883H127.031V56.1692C127.031 61.2107 122.926 65.3291 117.902 65.3291C112.877 65.3291 108.773 61.2107 108.773 56.1692V26.4883H103.96H95.8926V55.7432C95.8926 57.8024 96.1757 59.7196 96.671 61.6368C97.1664 63.483 97.9449 65.2581 98.8649 66.8913C99.8557 68.5244 100.988 70.0156 102.333 71.3647C103.677 72.7139 105.163 73.85 106.791 74.8441C107.216 75.0571 107.64 75.3411 108.065 75.5541C109.339 76.1932 110.683 76.6903 112.028 77.1163C113.868 77.6133 115.85 77.8974 117.902 77.8974C119.883 77.8974 121.865 77.6133 123.705 77.1163C124.979 76.7613 126.182 76.3352 127.385 75.7672C127.951 75.4831 128.446 75.1991 129.013 74.9151C130.64 73.921 132.126 72.7849 133.471 71.4357C134.816 70.0866 135.948 68.5955 136.939 66.9623C137.859 65.3291 138.637 63.625 139.133 61.7078C139.628 59.8616 139.911 57.8734 139.911 55.8142V26.4883H132.551Z" fill="white"/>
<path d="M145.927 26.4883H168.644C170.201 26.4883 171.616 26.7013 172.961 27.1273C174.305 27.5534 175.579 28.1214 176.711 28.9025C177.844 29.6126 178.834 30.5357 179.754 31.6008C180.674 32.6659 181.453 33.731 182.09 34.9381C182.727 36.1452 183.222 37.4234 183.505 38.7015C183.859 40.0506 184.001 41.3288 184.001 42.7489C184.001 44.7371 183.647 46.7253 182.939 48.6425C182.231 50.5597 181.17 52.2638 179.896 53.755C178.551 55.2461 176.994 56.4533 175.084 57.3764C173.244 58.2994 171.191 58.7965 168.927 58.7965H158.878V77.6844H145.998V26.4883H145.927ZM170.979 42.6069C170.979 41.9678 170.838 41.2577 170.625 40.6187C170.413 39.9796 170.059 39.3406 169.634 38.8435C169.21 38.3465 168.644 37.9204 168.007 37.5654C167.37 37.2103 166.662 37.0683 165.884 37.0683H158.807V48.2164H165.884C166.662 48.2164 167.37 48.0744 168.078 47.7194C168.714 47.3644 169.281 47.0093 169.705 46.4413C170.13 45.9442 170.484 45.3762 170.696 44.6661C170.838 44.027 170.979 43.317 170.979 42.6069Z" fill="white"/>
<path d="M178.834 76.7616C181.687 76.7616 184 74.4408 184 71.578C184 68.7153 181.687 66.3945 178.834 66.3945C175.981 66.3945 173.668 68.7153 173.668 71.578C173.668 74.4408 175.981 76.7616 178.834 76.7616Z" fill="white"/>
<path d="M67.3015 15.4825C67.3723 13.4233 66.3107 11.6481 64.0461 10.37C62.7015 9.58891 60.72 8.73682 58.88 7.81373C55.7661 6.32258 56.6153 3.97935 57.8892 3.12727C58.6677 2.63022 60.0123 2.27518 61.8523 2.98525C62.2769 3.12727 63.6215 3.83734 63.8338 4.05036L65.5323 2.06216C65.1076 1.77813 63.9753 1.06806 62.7015 0.571014C61.003 -0.0680494 58.4553 -0.28107 56.6153 0.713028C53.7138 2.34619 52.6523 5.89654 55.0584 8.4528C56.12 9.58891 57.5353 10.228 58.5261 10.654C59.3753 11.0801 61.9938 12.2872 62.6307 12.7132C65.1076 14.4174 64.5415 16.4766 63.3384 17.5417C62.3476 18.4648 60.1538 18.6778 58.6677 18.1098C57.4646 17.6127 56.3323 16.8316 55.5538 16.3346L53.5723 18.3938C54.4923 19.3169 56.12 20.169 57.1107 20.524C59.163 21.3051 61.2861 21.2341 63.1261 20.666C65.603 19.9559 67.16 17.9677 67.3015 15.4825Z" fill="white"/>
</svg>
