<svg width="332" height="141" viewBox="0 0 332 141" fill="none" xmlns="http://www.w3.org/2000/svg">
<path d="M70.2148 94.2938C70.2148 90.0753 70.7245 85.9847 71.8711 82.0219C72.8903 78.0592 74.5466 74.4799 76.4576 71.0284C78.4961 67.577 80.7893 64.509 83.5922 61.6967C86.3951 58.8844 89.4528 56.4556 92.8927 54.5382C96.3326 52.6207 99.8998 50.9589 103.849 49.9362C107.799 48.7857 111.748 48.2744 116.08 48.2744C120.284 48.2744 124.361 48.7857 128.183 49.9362C132.133 51.0867 135.7 52.6207 139.14 54.5382C142.58 56.4556 145.638 58.8844 148.441 61.6967C151.243 64.509 153.664 67.577 155.575 71.0284C157.614 74.4799 159.142 78.0592 160.162 82.0219C161.308 85.9847 161.818 89.9475 161.818 94.2938C161.818 98.5122 161.308 102.603 160.162 106.566C159.015 110.528 157.486 114.108 155.575 117.431C153.537 120.755 151.243 123.951 148.441 126.635C145.638 129.447 142.58 131.748 139.14 133.794C135.7 135.839 132.133 137.373 128.183 138.396C124.234 139.418 120.284 140.057 116.08 140.057C111.876 140.057 107.799 139.546 103.849 138.396C99.8998 137.373 96.3326 135.839 92.8927 133.794C89.4528 131.748 86.3951 129.447 83.5922 126.635C80.7893 123.823 78.4961 120.755 76.4576 117.431C74.4192 114.108 72.8903 110.401 71.8711 106.566C70.7245 102.603 70.2148 98.5122 70.2148 94.2938ZM93.4023 94.1659C93.4023 97.4896 93.9119 100.558 95.0585 103.498C96.2051 106.438 97.734 108.867 99.7724 111.04C101.811 113.213 104.104 114.875 106.907 116.025C109.71 117.303 112.64 117.815 115.953 117.815C119.265 117.815 122.323 117.176 125.126 116.025C127.929 114.747 130.222 113.085 132.26 111.04C134.299 108.867 135.828 106.438 136.974 103.498C138.121 100.558 138.63 97.4896 138.63 94.1659C138.63 90.8423 138.121 87.7744 136.974 84.8342C135.828 81.8941 134.299 79.4653 132.26 77.2922C130.222 75.119 127.801 73.4572 125.126 72.1789C122.323 70.9006 119.265 70.2614 115.953 70.2614C112.64 70.2614 109.583 70.9006 106.907 72.1789C104.104 73.4572 101.811 75.119 99.7724 77.2922C97.734 79.4653 96.2051 82.0219 95.0585 84.8342C93.9119 87.9022 93.4023 90.9701 93.4023 94.1659Z" fill="white" fill-opacity="0.5"/>
<path d="M14.7944 110.272C14.7944 110.272 16.3233 111.678 17.3425 112.573C18.3617 113.467 19.6357 114.49 20.9098 115.385C22.9482 116.791 24.9867 117.814 26.8977 118.581C32.2487 120.626 36.1982 119.859 38.3641 119.22C40.7847 118.453 42.6958 116.919 43.3328 115.001C43.9698 113.212 44.0972 110.911 42.6958 108.482C41.9313 107.331 40.2751 106.053 39.0011 105.286C37.5996 104.519 36.1982 103.88 34.7968 103.369C33.2679 102.857 31.9939 102.346 30.9747 101.962C26.1333 100.301 22.0564 98.511 18.3617 96.5936C14.7944 94.6761 11.7367 92.503 9.44348 90.0742C7.02281 87.6454 5.23916 85.0887 4.09253 82.2764C2.9459 79.4641 2.30889 76.2683 2.30889 72.6891C2.30889 68.9819 3.07331 65.5305 4.60215 62.5904C6.13099 59.5224 8.16944 56.9658 10.9723 54.7926C13.7752 52.6195 17.0877 50.9577 21.0372 49.8072C24.9867 48.6567 29.3184 48.0176 34.1597 48.0176C37.727 48.0176 41.2943 48.4011 44.6068 49.2959C47.9193 50.0629 51.2318 51.469 54.4169 53.2587C55.8183 54.0257 57.0924 54.9205 58.239 55.6875C59.513 56.5823 60.5322 57.3493 61.4241 58.1163C61.8063 58.3719 62.6981 59.5224 62.6981 59.5224L48.0467 73.9674C48.0467 73.9674 46.2631 72.6891 45.2438 71.9221C44.2246 71.1551 40.5299 68.9819 38.4915 68.215C35.3064 67.1923 32.1213 67.0645 29.9554 67.9593C27.28 68.9819 25.4963 71.4107 25.6237 73.9674C25.7511 76.9075 28.4266 78.5693 30.3376 79.592C32.6309 80.8703 36.5804 82.4043 38.7463 83.0434C42.9506 84.4496 46.9001 85.8557 50.4674 87.5175C54.0347 89.0515 57.0924 90.8411 59.7678 93.0143C62.3159 95.0596 64.3543 97.6162 65.8832 100.556C67.2846 103.496 68.049 107.076 68.049 111.166C68.049 115.513 67.1572 119.603 65.3736 123.183C63.5899 126.762 61.1693 129.83 57.9842 132.386C54.7991 134.943 51.2318 136.86 46.9001 138.267C42.6958 139.673 38.1092 140.312 33.2679 140.312C28.6814 140.312 24.2223 139.545 19.7632 137.883C15.304 136.221 11.4819 134.048 7.40502 130.98C1.92668 126.89 0.015625 124.205 0.015625 124.205L14.7944 110.272Z" fill="white" fill-opacity="0.5"/>
<path d="M31.7391 25.646L35.5612 27.6913C34.2871 30.2479 32.8857 32.1654 31.1021 33.6994C29.4458 35.2334 27.5348 36.3839 25.4963 37.1508C23.4579 37.9178 21.0372 38.3013 18.4891 38.3013C12.6286 38.3013 8.16944 36.3839 4.85695 32.5489C1.67187 28.8418 0.015625 24.4955 0.015625 19.7658C0.015625 15.1638 1.41706 11.201 4.21994 7.62175C7.65983 3.01982 12.3738 0.84668 18.3617 0.84668C24.4771 0.84668 29.3184 3.14765 32.8857 7.74958C35.4338 11.0732 36.8352 15.036 36.8352 20.0214H4.72955C4.85695 24.2399 6.13099 27.5635 8.67906 30.2479C11.2271 32.9324 14.4122 34.2107 18.1069 34.2107C19.8906 34.2107 21.6742 33.9551 23.4579 33.3159C25.1141 32.6767 26.6429 31.7819 27.7896 30.7593C29.0636 29.6088 30.3376 27.947 31.7391 25.646ZM31.7391 15.9308C31.1021 13.502 30.2102 11.4567 29.0636 10.0506C27.917 8.6444 26.3881 7.36609 24.4771 6.47127C22.566 5.57645 20.5276 5.06512 18.3617 5.06512C14.9218 5.06512 11.8641 6.21561 9.31607 8.51657C7.53243 10.1784 6.13099 12.6072 5.11176 15.9308H31.7391Z" fill="white" fill-opacity="0.5"/>
<path d="M137.355 45.8431H142.196L161.561 1.74121H156.592L144.744 29.225L132.513 1.74121H127.672L142.323 34.8496L137.355 45.8431Z" fill="white" fill-opacity="0.5"/>
<path d="M80.2799 1.7415V8.51657C76.84 3.91464 71.3617 0.84668 65.1189 0.84668C54.7992 0.84668 46.3906 9.15573 46.3906 19.6379C46.3906 29.9923 54.7992 38.4291 65.1189 38.4291C71.3617 38.4291 76.84 35.3612 80.2799 30.7593V37.5343H84.8665V1.7415H80.2799ZM65.1189 33.6994C57.3473 33.6994 51.1045 27.4356 51.1045 19.6379C51.1045 11.8402 57.3473 5.57645 65.1189 5.57645C72.8905 5.57645 79.1333 11.8402 79.1333 19.6379C79.1333 27.3078 72.8905 33.6994 65.1189 33.6994Z" fill="white" fill-opacity="0.5"/>
<path d="M238.643 47.8887H228.706V101.322C228.706 110.398 221.317 117.813 212.271 117.813C203.225 117.813 195.836 110.398 195.836 101.322V47.8887H187.172H172.648V100.555C172.648 104.262 173.158 107.714 174.05 111.165C174.942 114.489 176.343 117.685 177.999 120.625C179.783 123.565 181.821 126.249 184.242 128.678C186.663 131.107 189.338 133.152 192.269 134.942C193.033 135.325 193.797 135.837 194.562 136.22C196.855 137.371 199.276 138.266 201.696 139.033C205.009 139.927 208.576 140.439 212.271 140.439C215.838 140.439 219.405 139.927 222.718 139.033C225.011 138.393 227.177 137.626 229.343 136.604C230.362 136.092 231.254 135.581 232.273 135.07C235.204 133.28 237.879 131.235 240.3 128.806C242.72 126.377 244.759 123.693 246.542 120.753C248.199 117.813 249.6 114.745 250.492 111.293C251.384 107.969 251.893 104.39 251.893 100.683V47.8887H238.643Z" fill="white" fill-opacity="0.5"/>
<path d="M262.721 47.8887H303.617C306.42 47.8887 308.968 48.2722 311.389 49.0392C313.809 49.8061 316.103 50.8288 318.141 52.2349C320.18 53.5133 321.963 55.1751 323.62 57.0925C325.276 59.01 326.677 60.9275 327.824 63.1006C328.97 65.2738 329.862 67.5747 330.372 69.8757C331.009 72.3045 331.264 74.6055 331.264 77.1621C331.264 80.7414 330.627 84.3207 329.353 87.7721C328.079 91.2236 326.168 94.2915 323.874 96.976C321.454 99.6604 318.651 101.834 315.211 103.495C311.898 105.157 308.204 106.052 304.127 106.052H286.036V140.055H262.848V47.8887H262.721ZM307.822 76.9064C307.822 75.756 307.567 74.4776 307.185 73.3272C306.802 72.1767 306.165 71.0262 305.401 70.1314C304.636 69.2365 303.617 68.4696 302.471 67.8304C301.324 67.1912 300.05 66.9356 298.648 66.9356H285.908V87.0051H298.648C300.05 87.0051 301.324 86.7495 302.598 86.1103C303.745 85.4711 304.764 84.832 305.528 83.8093C306.293 82.9145 306.93 81.8919 307.312 80.6136C307.567 79.4631 307.822 78.1848 307.822 76.9064Z" fill="white" fill-opacity="0.5"/>
<path d="M321.965 138.393C327.101 138.393 331.265 134.215 331.265 129.061C331.265 123.907 327.101 119.729 321.965 119.729C316.828 119.729 312.664 123.907 312.664 129.061C312.664 134.215 316.828 138.393 321.965 138.393Z" fill="white" fill-opacity="0.5"/>
<path d="M121.175 28.0757C121.303 24.3686 119.392 21.1728 115.315 18.8718C112.894 17.4657 109.327 15.9317 106.014 14.2699C100.408 11.5854 101.937 7.36701 104.231 5.83303C105.632 4.93821 108.053 4.29905 111.365 5.57737C112.13 5.83303 114.55 7.11134 114.932 7.49484L117.99 3.91556C117.226 3.40423 115.187 2.12591 112.894 1.23109C109.836 0.0806103 105.25 -0.302884 101.937 1.48676C96.7138 4.42688 94.8027 10.8185 99.1345 15.4204C101.046 17.4657 103.594 18.6162 105.377 19.3832C106.906 20.1502 111.62 22.3233 112.767 23.0903C117.226 26.1582 116.207 29.8654 114.041 31.7828C112.257 33.4446 108.307 33.8281 105.632 32.8055C103.466 31.9107 101.428 30.5045 100.026 29.6097L96.459 33.3168C98.1152 34.9786 101.046 36.5126 102.829 37.1518C106.524 38.5579 110.346 38.4301 113.658 37.4074C118.118 36.1291 120.92 32.5498 121.175 28.0757Z" fill="white" fill-opacity="0.5"/>
</svg>
