<svg width="227" height="337" viewBox="0 0 227 337" fill="none" xmlns="http://www.w3.org/2000/svg">
<path d="M187.718 177.541C187.718 162.881 183.372 148.551 175.23 136.362C167.088 124.173 155.515 114.672 141.976 109.063C128.436 103.453 113.537 101.985 99.1635 104.845C84.7898 107.705 71.5867 114.764 61.2239 125.13C50.861 135.496 43.8038 148.703 40.9447 163.081C38.0856 177.458 39.553 192.362 45.1614 205.905C50.7697 219.449 60.2671 231.025 72.4525 239.169C84.6379 247.314 98.9641 251.661 113.619 251.661C133.271 251.661 152.119 243.852 166.015 229.952C179.911 216.051 187.718 197.199 187.718 177.541Z" fill="#FCDC08"/>
<path d="M98.1082 131.092C98.0851 125.336 98.8328 119.602 100.331 114.044C101.814 108.71 103.99 103.593 106.802 98.825C109.526 94.0731 112.846 89.6891 116.682 85.7799C124.51 77.8725 134.267 72.1491 144.988 69.1769C156.105 66.0794 167.857 66.0794 178.974 69.1769C189.753 72.1205 199.578 77.8262 207.477 85.7305C211.331 89.6429 214.652 94.0456 217.357 98.825C220.137 103.621 222.295 108.752 223.779 114.094C226.875 125.231 226.875 137.002 223.779 148.14C222.298 153.451 220.14 158.55 217.357 163.31C214.634 168.017 211.313 172.352 207.477 176.207C203.576 180.031 199.212 183.351 194.485 186.089C184.682 191.792 173.544 194.796 162.203 194.796C150.863 194.796 139.724 191.792 129.921 186.089C120.452 180.547 112.561 172.67 107 163.211C104.127 158.536 101.884 153.502 100.331 148.239C98.8342 142.697 98.0866 136.98 98.1082 131.24V131.092ZM130.464 131.24C130.403 135.665 131.192 140.059 132.786 144.187C134.26 148.095 136.493 151.672 139.356 154.712C142.146 157.689 145.506 160.076 149.236 161.728C153.241 163.465 157.567 164.34 161.932 164.298C166.296 164.33 170.619 163.455 174.627 161.728C178.361 160.083 181.722 157.696 184.507 154.712C187.354 151.659 189.585 148.085 191.077 144.187C194.172 135.85 194.172 126.68 191.077 118.343C189.586 114.414 187.356 110.808 184.507 107.719C181.603 104.596 178.086 102.107 174.176 100.406C170.266 98.7055 166.047 97.8308 161.783 97.8368C157.412 97.786 153.082 98.6793 149.088 100.456C145.365 102.144 142.009 104.544 139.208 107.522C136.343 110.598 134.111 114.208 132.638 118.146C131.058 122.26 130.27 126.636 130.316 131.043" fill="#0A4B42"/>
<path d="M95.1937 208.473H81.3126V282.989C81.0387 288.892 78.5016 294.463 74.2284 298.543C69.9552 302.624 64.2746 304.901 58.3668 304.901C52.459 304.901 46.7784 302.624 42.5052 298.543C38.232 294.463 35.6949 288.892 35.421 282.989V208.473H3.06471V281.655C3.01882 286.658 3.65028 291.645 4.94187 296.479C6.21657 301.087 8.09346 305.506 10.5239 309.623C15.3095 317.795 22.1134 324.601 30.2835 329.388C31.3209 330.031 32.4077 330.574 33.4944 331.118C36.6542 332.722 39.9632 334.012 43.3742 334.972C53.0735 337.644 63.3143 337.644 73.0136 334.972C76.1749 334.1 79.2503 332.942 82.2018 331.513C83.5869 330.873 84.9389 330.164 86.2525 329.388C90.3306 326.996 94.0971 324.108 97.466 320.79C100.809 317.449 103.713 313.696 106.111 309.623C108.503 305.493 110.362 301.077 111.644 296.479C112.993 291.654 113.658 286.664 113.619 281.655V208.473H95.1937Z" fill="#0A4B42"/>
<path d="M129.032 208.473H186.137C189.822 208.453 193.488 209.003 197.005 210.104C200.302 211.118 203.443 212.581 206.341 214.453C209.209 216.325 211.802 218.586 214.047 221.173C216.305 223.73 218.246 226.55 219.827 229.573C222.619 234.801 224.258 240.568 224.633 246.484C225.008 252.399 224.11 258.327 222 263.866C220.274 268.601 217.658 272.962 214.294 276.713C210.898 280.479 206.805 283.549 202.241 285.756C197.395 288.119 192.071 289.337 186.68 289.314H161.388V336.652H129.032V208.473ZM191.966 248.993C191.953 247.307 191.652 245.636 191.077 244.051C190.506 242.417 189.653 240.895 188.557 239.555C187.412 238.248 186.04 237.16 184.507 236.343C182.823 235.494 180.958 235.07 179.073 235.107H161.388V263.026H179.073C180.952 263.06 182.813 262.654 184.507 261.84C186.062 261.079 187.442 260.002 188.557 258.678C189.662 257.362 190.516 255.855 191.077 254.23C191.652 252.646 191.953 250.975 191.966 249.289" fill="#0A4B42"/>
<path d="M20.6999 153.18L24.2567 156.392C25.8192 157.796 27.4691 159.1 29.1966 160.296C31.842 162.068 34.6749 163.543 37.6438 164.693C42.7155 166.824 48.3631 167.155 53.649 165.632C55.1579 165.241 56.5611 164.52 57.7571 163.52C58.9532 162.52 59.9122 161.267 60.5649 159.851C61.127 158.378 61.3392 156.794 61.1849 155.225C61.0306 153.656 60.5139 152.144 59.6757 150.808C58.2327 149.028 56.4098 147.593 54.3406 146.608C52.4412 145.544 50.4587 144.635 48.4127 143.89L43.0777 142.013C37.0895 139.96 31.2749 137.432 25.6892 134.452C21.1069 132.036 16.8838 128.993 13.1419 125.41C9.95871 122.288 7.40903 118.58 5.63328 114.489C3.9091 110.256 3.05238 105.719 3.11393 101.148C3.04064 96.2536 4.12389 91.4114 6.27546 87.0154C8.36907 82.7586 11.4314 79.0521 15.2167 76.1938C19.4107 73.023 24.1484 70.6451 29.1966 69.1771C35.1544 67.4734 41.3274 66.6412 47.5236 66.7064C52.5156 66.6742 57.4927 67.2551 62.3432 68.4359C67.0858 69.7248 71.637 71.6355 75.8785 74.1185C77.7557 75.255 79.534 76.3915 81.263 77.5774C82.992 78.7633 84.4245 79.9492 85.7089 81.0363C86.2029 81.4811 87.5861 83.0129 87.5861 83.0129L67.0855 102.778L63.1336 99.9617C60.1588 97.9785 56.9789 96.3218 53.649 95.0204C49.7902 93.5985 45.5694 93.4943 41.6451 94.7239C39.8918 95.3358 38.3664 96.4674 37.2721 97.9681C36.1778 99.4688 35.5665 101.267 35.5196 103.124C35.5196 107.275 39.5209 109.499 42.0897 110.932C45.8845 112.897 49.833 114.549 53.896 115.873C59.7745 117.8 65.2084 119.826 70.1976 122C74.843 123.925 79.1988 126.486 83.1402 129.61C86.6807 132.462 89.5766 136.032 91.6368 140.085C93.768 144.729 94.7992 149.802 94.6501 154.91C94.7429 160.68 93.4557 166.39 90.8958 171.562C88.4295 176.531 84.9055 180.899 80.5714 184.36C75.9775 188 70.753 190.764 65.159 192.513C58.9943 194.47 52.5584 195.438 46.091 195.379C39.6431 195.382 33.2486 194.21 27.2206 191.92C20.9901 189.532 15.1471 186.235 9.88158 182.136C6.15363 179.576 2.8244 176.479 0.00180054 172.945L20.6999 153.18Z" fill="#0A4B42"/>
<path d="M44.4609 35.4277L49.8948 38.2937C48.3487 41.4367 46.2581 44.2808 43.7199 46.694C41.4592 48.8508 38.7881 50.5312 35.8655 51.6354C32.707 52.8112 29.3552 53.3812 25.9857 53.3154C22.399 53.4952 18.8179 52.8645 15.5083 51.4701C12.1987 50.0758 9.24559 47.9535 6.86833 45.261C2.41914 40.2914 -0.0276854 33.8468 0.00187884 27.1757C-0.0717958 21.037 1.98867 15.0634 5.83095 10.2763C8.12404 7.22733 11.1158 4.77409 14.5545 3.12304C17.9932 1.472 21.778 0.671477 25.5905 0.788865C29.5329 0.687279 33.4423 1.53147 36.9917 3.25082C40.5411 4.97017 43.6274 7.51469 45.9923 10.6716C49.7142 15.5602 51.6495 21.5768 51.4755 27.7192H6.62133C6.58321 32.9511 8.56514 37.9959 12.154 41.8021C13.8592 43.6024 15.9227 45.0252 18.2116 45.9784C20.5004 46.9317 22.9637 47.3943 25.4423 47.3364C27.9718 47.3344 30.4808 46.8827 32.8522 46.0022C35.094 45.2232 37.1712 44.0335 38.9776 42.4939C41.1663 40.4423 43.0169 38.0575 44.4609 35.4277V35.4277ZM44.4609 21.9873C43.8274 19.0102 42.5456 16.2095 40.7066 13.7846C38.9605 11.6591 36.7454 9.96768 34.2353 8.84326C31.5627 7.5864 28.6425 6.94477 25.6893 6.96555C21.0149 6.95014 16.5104 8.71715 13.0926 11.9069C10.249 14.6584 8.23015 18.1497 7.26352 21.9873H44.4609Z" fill="#0A4B42"/>
<path d="M191.966 63.6429H198.734L225.755 2.07373H218.938L202.291 40.5174L185.149 2.07373H178.381L198.833 48.2259L191.966 63.6429Z" fill="#0A4B42"/>
<path d="M112.187 2.07381V11.5118C108.917 7.05131 104.322 3.73854 99.0571 2.04666C93.7926 0.354793 88.1282 0.370365 82.8731 2.09116C77.6179 3.81195 73.0408 7.14994 69.7956 11.6283C66.5503 16.1067 64.8029 21.4964 64.8029 27.0276C64.8029 32.5588 66.5503 37.9485 69.7956 42.4269C73.0408 46.9053 77.6179 50.2433 82.8731 51.9641C88.1282 53.6849 93.7926 53.7005 99.0571 52.0086C104.322 50.3167 108.917 47.0039 112.187 42.5435V51.9814H118.559V2.07381H112.187ZM91.0935 46.546C87.1854 46.546 83.3651 45.3867 80.1157 43.2149C76.8662 41.043 74.3336 37.9561 72.8381 34.3444C71.3425 30.7328 70.9512 26.7586 71.7136 22.9245C72.4761 19.0904 74.358 15.5686 77.1214 12.8043C79.8848 10.0401 83.4056 8.1576 87.2386 7.39495C91.0716 6.6323 95.0446 7.02372 98.6552 8.51971C102.266 10.0157 105.352 12.5491 107.523 15.7995C109.694 19.0499 110.853 22.8713 110.853 26.7806C110.853 32.0227 108.771 37.0501 105.066 40.7568C101.36 44.4635 96.3341 46.546 91.0935 46.546" fill="#0A4B42"/>
<path d="M224.717 321.532C224.708 318.954 223.935 316.436 222.496 314.298C221.057 312.159 219.017 310.495 216.633 309.515C214.249 308.535 211.628 308.284 209.102 308.793C206.575 309.302 204.256 310.548 202.437 312.374C200.618 314.201 199.381 316.525 198.882 319.054C198.383 321.583 198.644 324.204 199.632 326.585C200.621 328.965 202.292 331 204.436 332.431C206.579 333.862 209.099 334.626 211.676 334.626C213.393 334.626 215.093 334.287 216.678 333.629C218.264 332.97 219.704 332.005 220.915 330.788C222.127 329.571 223.086 328.127 223.739 326.539C224.391 324.951 224.724 323.249 224.717 321.532" fill="#0A4B42"/>
<path d="M169.292 38.7383C169.312 36.0396 168.554 33.3923 167.108 31.1136C165.663 28.8349 163.591 27.0215 161.141 25.8908C157.733 23.9143 152.842 21.6906 148.199 19.7635C140.344 16.1069 142.468 10.1279 145.729 8.05252C147.22 7.18559 148.902 6.70041 150.625 6.64007C152.349 6.57973 154.06 6.94609 155.608 7.70662C156.596 8.10193 160.005 9.93023 160.548 10.3255L164.846 5.38419C162.727 3.83157 160.46 2.49096 158.078 1.3817C155.641 0.406441 153.03 -0.061495 150.406 0.00647244C147.781 0.0744399 145.198 0.676884 142.814 1.777C141.044 2.57383 139.489 3.78163 138.28 5.30007C137.07 6.81852 136.239 8.6038 135.858 10.5076C135.476 12.4115 135.554 14.3789 136.085 16.2465C136.616 18.1141 137.585 19.8281 138.912 21.2459C141.427 23.634 144.356 25.543 147.556 26.8791C149.73 27.9662 156.3 30.931 157.881 31.8204C159.005 32.306 159.987 33.07 160.734 34.0402C161.482 35.0105 161.97 36.1551 162.153 37.3663C162.336 38.5774 162.207 39.8152 161.78 40.963C161.352 42.1107 160.639 43.1307 159.709 43.9267C158.03 45.1193 156.08 45.8747 154.036 46.1249C151.992 46.3751 149.918 46.1121 148.001 45.3597C145.254 44.1599 142.652 42.6513 140.245 40.8631L135.305 45.8044C137.914 48.1048 140.907 49.9279 144.148 51.1905C148.912 52.9265 154.108 53.0824 158.968 51.6352C161.869 50.7972 164.428 49.0575 166.275 46.6679C168.123 44.2782 169.162 41.3626 169.243 38.343" fill="#0A4B42"/>
</svg>
