<svg width="132" height="61" viewBox="0 0 132 61" fill="none" xmlns="http://www.w3.org/2000/svg">
<g clip-path="url(#clip0)">
<path d="M82.9389 38.1059C82.9389 34.3856 81.8372 30.7489 79.7729 27.6556C77.7087 24.5623 74.7748 22.1514 71.3421 20.7277C67.9094 19.304 64.1322 18.9315 60.4881 19.6573C56.844 20.3831 53.4967 22.1746 50.8694 24.8052C48.2422 27.4358 46.453 30.7875 45.7282 34.4362C45.0033 38.085 45.3753 41.8671 46.7972 45.3042C48.219 48.7412 50.6269 51.6789 53.7162 53.7458C56.8055 55.8127 60.4376 56.9159 64.1531 56.9159C69.1354 56.9159 73.9136 54.9341 77.4367 51.4066C80.9597 47.879 82.9389 43.0946 82.9389 38.1059Z" fill="#FCDC08"/>
<path d="M28.3546 38.2736C28.3449 35.2203 29.1488 32.2196 30.6834 29.5811C31.4279 28.3012 32.3322 27.1214 33.3745 26.0704C34.4311 25.0219 35.6234 24.12 36.9195 23.3888C38.2058 22.6349 39.5844 22.0514 41.0208 21.6529C44.0137 20.824 47.1751 20.824 50.1679 21.6529C51.6076 22.0538 52.9902 22.6371 54.2822 23.3888C56.8437 24.8784 58.9713 27.0132 60.4536 29.5811C61.1989 30.8729 61.7812 32.2523 62.1873 33.6877C62.998 36.6867 62.998 39.8475 62.1873 42.8465C61.7837 44.2828 61.2012 45.6625 60.4536 46.9531C59.7093 48.2175 58.8048 49.3801 57.7625 50.412C56.7202 51.4531 55.5508 52.3585 54.2822 53.1065C51.6453 54.639 48.6497 55.4437 45.6008 55.4383C42.5514 55.448 39.5546 54.6431 36.9195 53.1065C35.6486 52.3617 34.4789 51.4561 33.4392 50.412C32.4007 49.3767 31.4965 48.2146 30.7481 46.9531C29.2157 44.3184 28.4119 41.3225 28.4193 38.2736H28.3546ZM37.1136 38.2736C37.1036 39.4636 37.3142 40.6452 37.7346 41.7584C38.1381 42.7976 38.7402 43.7481 39.5071 44.5565C40.2343 45.3543 41.1142 45.9975 42.0947 46.4479C43.1765 46.9011 44.3375 47.1345 45.5103 47.1345C46.683 47.1345 47.844 46.9011 48.9259 46.4479C49.9444 46.0116 50.861 45.3674 51.617 44.5565C52.3867 43.7404 52.9889 42.7809 53.3895 41.7324C54.2174 39.4877 54.2174 37.0206 53.3895 34.7759C52.9863 33.721 52.3846 32.7535 51.617 31.9259C50.8586 31.1112 49.9431 30.459 48.9259 30.0086C47.844 29.5554 46.683 29.322 45.5103 29.322C44.3375 29.322 43.1765 29.5554 42.0947 30.0086C41.1155 30.4726 40.2365 31.1239 39.5071 31.9259C38.7395 32.7535 38.1378 33.721 37.7346 34.7759C37.3163 35.8851 37.1058 37.062 37.1136 38.2477" fill="#0A4B42"/>
<path d="M7.53743 44.2708C7.53743 44.2708 8.09376 44.789 8.49484 45.1387C8.90705 45.5114 9.33893 45.8617 9.78863 46.1881C10.5045 46.6631 11.2676 47.0625 12.0657 47.3799C13.4275 47.9502 14.9432 48.0371 16.3611 47.626C16.77 47.5232 17.1501 47.3286 17.4729 47.0571C17.7957 46.7855 18.0525 46.4441 18.2242 46.0585C18.3739 45.664 18.4307 45.2402 18.3903 44.82C18.3499 44.3999 18.2134 43.9947 17.9913 43.636C17.6131 43.1444 17.1317 42.7419 16.581 42.4572C16.0651 42.1719 15.5289 41.9251 14.9767 41.7188C14.4765 41.5115 14.028 41.3431 13.6312 41.2135C12.0084 40.6551 10.4298 39.9752 8.90885 39.1797C7.67894 38.5353 6.5464 37.7197 5.54499 36.7572C4.67831 35.9206 3.99149 34.9155 3.52668 33.8035C3.04848 32.6637 2.80639 31.4385 2.81509 30.2022C2.79746 28.9059 3.08177 27.6234 3.64546 26.4563C4.20916 25.2892 5.03672 24.2698 6.06251 23.4788C7.1966 22.6345 8.47135 21.9985 9.82744 21.6004C11.43 21.1425 13.0904 20.9199 14.7568 20.9397C16.0646 20.9383 17.3678 21.0949 18.6382 21.406C19.9312 21.733 21.1754 22.2295 22.3384 22.8829C22.843 23.1808 23.3217 23.4917 23.7875 23.8156C24.2532 24.1395 24.6414 24.4504 24.9907 24.7483C25.1637 24.9166 25.3278 25.0939 25.4823 25.2795L19.9708 30.6426L18.9228 29.8913C18.1141 29.3384 17.2462 28.8778 16.3352 28.5181C15.3004 28.1315 14.1659 28.1042 13.1137 28.4404C12.6417 28.6033 12.2304 28.9062 11.9346 29.3088C11.6388 29.7115 11.4724 30.1948 11.4576 30.6944C11.4576 31.8085 12.5315 32.4044 13.2301 32.806C14.2482 33.327 15.3086 33.7603 16.3999 34.1015C17.9913 34.6326 19.4533 35.1767 20.7859 35.7597C22.034 36.2793 23.205 36.968 24.2662 37.8065C25.2291 38.5748 26.0147 39.5427 26.5691 40.6435C27.1496 41.8915 27.4331 43.2573 27.3971 44.6335C27.421 46.1881 27.0704 47.7256 26.375 49.1158C25.7138 50.449 24.7687 51.6208 23.6063 52.5487C22.3845 53.5494 20.9901 54.3177 19.4921 54.8158C17.8177 55.3405 16.0713 55.5984 14.3169 55.5801C12.5847 55.5828 10.8664 55.2712 9.24524 54.6603C7.57535 54.0276 6.00635 53.1548 4.58758 52.0694C3.60518 51.3348 2.73369 50.4622 2 49.4785L7.53743 44.2708Z" fill="#0A4B42"/>
<path d="M14.7195 12.5323L16.2203 13.3613C15.7875 14.1885 15.214 14.9338 14.5254 15.5636C13.9107 16.1252 13.1951 16.5648 12.4166 16.8591C11.564 17.1761 10.6607 17.3341 9.75134 17.3254C8.7829 17.3784 7.81497 17.2126 6.91916 16.8403C6.02336 16.4681 5.22261 15.8989 4.57617 15.175C3.43588 13.8865 2.78291 12.2384 2.7309 10.5176C2.6789 8.79681 3.23115 7.11223 4.29154 5.75704C4.90837 4.93303 5.71252 4.26816 6.63729 3.81757C7.56207 3.36698 8.58081 3.14366 9.60902 3.16613C10.6615 3.12934 11.7076 3.34534 12.6596 3.79608C13.6117 4.24683 14.4423 4.91921 15.0818 5.75704C16.0864 7.07061 16.6114 8.68901 16.5696 10.3429H4.57617C4.54301 11.7862 5.08271 13.1838 6.07697 14.2293C6.52772 14.7144 7.07477 15.0999 7.68302 15.3609C8.29128 15.6219 8.94731 15.7527 9.60902 15.745C10.2892 15.7413 10.9635 15.6185 11.6015 15.3823C12.2062 15.1703 12.7674 14.8498 13.2575 14.4366C13.8382 13.8794 14.3311 13.2374 14.7195 12.5323ZM14.7195 8.91794C14.5419 8.11689 14.198 7.36217 13.7103 6.70272C13.2347 6.14285 12.6372 5.69967 11.9637 5.40727C11.2732 5.07248 10.5184 4.89129 9.75134 4.87613C8.49686 4.8541 7.28239 5.31823 6.36161 6.17158C5.56383 6.90946 4.99746 7.86362 4.73143 8.91794H14.7195Z" fill="#0A4B42"/>
<path d="M54.3712 20.1243H56.1954L63.4665 3.56836H61.6293L57.1528 13.8931L52.5469 3.56836H50.7227L56.2342 15.9658L54.3712 20.1243Z" fill="#0A4B42"/>
<path d="M32.9337 3.5682V6.15911C32.2217 5.18827 31.273 4.41637 30.1782 3.9171C29.0835 3.41783 27.8792 3.20786 26.6803 3.30722C25.4814 3.40659 24.328 3.81197 23.3301 4.48468C22.3322 5.15739 21.5232 6.07497 20.9803 7.14982C20.4373 8.22468 20.1786 9.42094 20.2288 10.6244C20.279 11.8279 20.6364 12.9984 21.2669 14.0242C21.8974 15.05 22.78 15.8969 23.8304 16.484C24.8808 17.071 26.0639 17.3788 27.2669 17.3777C28.3711 17.3799 29.4601 17.1205 30.445 16.6206C31.4298 16.1208 32.2827 15.3948 32.9337 14.5018V17.0927H34.6415V3.5682H32.9337ZM27.2669 15.5382C26.2243 15.5408 25.2045 15.2334 24.3366 14.655C23.4686 14.0767 22.7917 13.2533 22.3916 12.2894C21.9914 11.3254 21.886 10.2642 22.0888 9.24027C22.2916 8.2163 22.7933 7.27565 23.5306 6.53749C24.2678 5.79934 25.2072 5.29692 26.2299 5.0939C27.2525 4.89087 28.3124 4.99637 29.2751 5.39704C30.2378 5.79771 31.06 6.4755 31.6377 7.34454C32.2153 8.21358 32.5223 9.23475 32.5197 10.2787C32.5163 11.6725 31.9618 13.0083 30.9774 13.9939C29.9931 14.9795 28.659 15.5348 27.2669 15.5382Z" fill="#0A4B42"/>
<path d="M91.6209 20.875H87.8818V40.9157C87.8091 42.5039 87.1279 44.0029 85.9797 45.1011C84.8315 46.1993 83.3048 46.8121 81.7169 46.8121C80.1291 46.8121 78.6023 46.1993 77.4541 45.1011C76.3059 44.0029 75.6247 42.5039 75.552 40.9157V20.875H66.8448V40.5659C66.839 43.2031 67.5405 45.7935 68.876 48.0666C69.5245 49.154 70.3021 50.1588 71.1919 51.0591C72.0916 51.9602 73.105 52.7397 74.2064 53.3779C74.4825 53.5486 74.7676 53.7043 75.0603 53.8443C77.1238 54.8812 79.4017 55.4181 81.7104 55.4118C83.9481 55.4201 86.1591 54.9242 88.1794 53.9609L89.2662 53.3779C90.3654 52.7365 91.3785 51.9572 92.2807 51.0591C94.1216 49.2542 95.4596 46.999 96.1621 44.517C96.517 43.2522 96.6955 41.9444 96.6926 40.6307V20.875H91.6209Z" fill="#0A4B42"/>
<path d="M100.717 20.8749H116.061C117.989 20.8492 119.883 21.3897 121.508 22.4294C122.289 22.9463 122.995 23.5698 123.604 24.2819C124.214 24.9682 124.739 25.7249 125.169 26.536C125.596 27.359 125.926 28.2283 126.153 29.1269C126.712 31.3388 126.572 33.6698 125.752 35.7985C125.264 37.0824 124.535 38.2609 123.604 39.2703C122.691 40.2899 121.588 41.1215 120.357 41.7187C119.055 42.3531 117.625 42.681 116.178 42.6774H109.372V55.4117H100.717V20.8749ZM117.64 31.7567C117.631 31.3152 117.553 30.8779 117.407 30.4612C117.252 30.0217 117.02 29.6137 116.721 29.2565C116.408 28.905 116.036 28.6113 115.621 28.3885C115.173 28.1603 114.675 28.0448 114.172 28.0517H109.372V35.5783H114.133C114.641 35.5853 115.142 35.4697 115.595 35.2415C116.017 35.0467 116.388 34.7588 116.682 34.3994C116.983 34.0481 117.215 33.644 117.368 33.2076C117.523 32.7574 117.601 32.2846 117.601 31.8085" fill="#0A4B42"/>
<path d="M48.2921 13.4269C48.2996 12.6989 48.0957 11.9845 47.7053 11.3705C47.3148 10.7564 46.7546 10.2692 46.0927 9.968C45.187 9.43687 43.8674 8.84096 42.6253 8.25801C40.5035 7.27346 41.0728 5.6671 41.9525 5.11005C42.3618 4.86232 42.8277 4.72389 43.3057 4.70802C43.7836 4.69214 44.2577 4.79934 44.6824 5.01937C45.1255 5.23008 45.5573 5.46357 45.9762 5.71892L47.1277 4.42346C46.5247 4.00527 45.8784 3.65346 45.2 3.37415C44.5454 3.11059 43.8439 2.98383 43.1386 3.00165C42.4333 3.01947 41.7391 3.1815 41.0986 3.47778C40.6214 3.69208 40.2024 4.01778 39.8767 4.4276C39.551 4.83741 39.3281 5.31941 39.2268 5.83321C39.1254 6.34701 39.1485 6.87764 39.2941 7.38067C39.4397 7.8837 39.7036 8.34446 40.0636 8.72437C40.7343 9.36673 41.52 9.87656 42.3795 10.2271C42.9746 10.525 44.7342 11.3282 45.1482 11.6132C45.4498 11.7451 45.7132 11.9512 45.914 12.2123C46.1148 12.4733 46.2465 12.781 46.2968 13.1066C46.3471 13.4323 46.3145 13.7653 46.2019 14.075C46.0893 14.3846 45.9004 14.6608 45.6528 14.8778C45.1995 15.193 44.6765 15.3931 44.1288 15.4608C43.581 15.5285 43.0251 15.4618 42.5089 15.2664C41.7644 14.9454 41.0607 14.5366 40.4129 14.0487L39.1191 15.4348C39.8264 16.0545 40.6364 16.5455 41.5127 16.8857C42.8145 17.3647 44.2376 17.4011 45.5622 16.9894C46.3343 16.7558 47.0145 16.2873 47.5084 15.6488C48.0023 15.0104 48.2853 14.2338 48.318 13.4269" fill="#0A4B42"/>
<path d="M126.45 52.0178C126.45 51.3593 126.255 50.7156 125.89 50.1681C125.524 49.6206 125.005 49.1939 124.397 48.9419C123.79 48.6899 123.121 48.624 122.476 48.7524C121.831 48.8809 121.239 49.198 120.774 49.6636C120.309 50.1292 119.992 50.7225 119.864 51.3683C119.735 52.0141 119.801 52.6835 120.053 53.2919C120.305 53.9002 120.731 54.4202 121.278 54.786C121.824 55.1518 122.467 55.3471 123.125 55.3471C124.007 55.3471 124.852 54.9963 125.476 54.372C126.1 53.7476 126.45 52.9008 126.45 52.0178Z" fill="#0A4B42"/>
</g>
<defs>
<clipPath id="clip0">
<rect width="132" height="61" fill="white"/>
</clipPath>
</defs>
</svg>
