<svg width="73" height="95" viewBox="0 0 73 95" fill="none" xmlns="http://www.w3.org/2000/svg">
<path d="M63.1881 86.0535V10.0469C63.1881 9.41571 62.6766 8.9043 62.0455 8.9043H50.1841C49.553 8.9043 49.0416 9.41571 49.0416 10.0469C49.0416 10.678 49.553 11.1895 50.1841 11.1895H60.9029V84.9109H3.14648V11.1895H13.6829C14.314 11.1895 14.8255 10.678 14.8255 10.0469C14.8255 9.41571 14.314 8.9043 13.6829 8.9043H2.00391C1.37275 8.9043 0.861328 9.41571 0.861328 10.0469V86.0535C0.861328 86.6846 1.37275 87.1961 2.00391 87.1961H62.0455C62.6766 87.1961 63.1881 86.6842 63.1881 86.0535Z" fill="#016936"/>
<path d="M67.1421 13.9404C67.1005 13.3106 66.563 12.8344 65.9273 12.8755C65.2975 12.9167 64.8208 13.4605 64.8624 14.0903L69.7792 88.7925L12.1475 92.5859L11.9707 89.9036C11.9295 89.2733 11.3765 88.8081 10.7559 88.8382C10.1261 88.8798 9.64941 89.4237 9.691 90.0535L9.94237 93.8761C9.96202 94.1782 10.1014 94.4606 10.3295 94.6603C10.5383 94.8436 10.8062 94.9437 11.0822 94.9437C11.1073 94.9437 11.132 94.9428 11.1572 94.941L71.0694 90.9972C71.6992 90.9561 72.1758 90.4122 72.1343 89.7824L67.1421 13.9404Z" fill="#016936"/>
<path d="M53.0105 37.0391H10.8311C10.1999 37.0391 9.68848 37.5505 9.68848 38.1816C9.68848 38.8128 10.1999 39.3242 10.8311 39.3242H53.0105C53.6416 39.3242 54.153 38.8128 54.153 38.1816C54.153 37.5505 53.6416 37.0391 53.0105 37.0391Z" fill="#016936"/>
<path d="M53.0105 45.2969H10.8311C10.1999 45.2969 9.68848 45.8083 9.68848 46.4394C9.68848 47.0706 10.1999 47.582 10.8311 47.582H53.0105C53.6416 47.582 54.153 47.0706 54.153 46.4394C54.153 45.8083 53.6416 45.2969 53.0105 45.2969Z" fill="#016936"/>
<path d="M53.0105 53.5547H10.8311C10.1999 53.5547 9.68848 54.0661 9.68848 54.6973C9.68848 55.3284 10.1999 55.8398 10.8311 55.8398H53.0105C53.6416 55.8398 54.153 55.3284 54.153 54.6973C54.153 54.0661 53.6416 53.5547 53.0105 53.5547Z" fill="#016936"/>
<path d="M21.5299 28.2062L20.1378 33.1348C20.018 33.5598 20.1533 34.0159 20.486 34.3062C20.6981 34.4913 20.9664 34.5882 21.2378 34.5882C21.3919 34.5882 21.5472 34.5571 21.6935 34.4935L28.1993 31.6636C29.453 31.9716 30.7377 32.1275 32.0247 32.1275C40.8586 32.1275 48.0455 24.9407 48.0455 16.1067C48.0455 7.27276 40.8586 0.0859375 32.0247 0.0859375C23.1907 0.0859375 16.0039 7.27276 16.0039 16.1067C16.0039 20.7881 18.0084 25.1555 21.5299 28.2062ZM32.0247 2.37109C39.5981 2.37109 45.7603 8.53279 45.7603 16.1067C45.7603 23.6806 39.5986 29.8423 32.0247 29.8423C30.8049 29.8423 29.5869 29.6792 28.405 29.3565C28.1536 29.2884 27.8867 29.3072 27.6491 29.4109L22.9919 31.4365L23.9316 28.1111C24.0568 27.6655 23.9023 27.1888 23.539 26.9027C20.2027 24.2761 18.2895 20.3411 18.2895 16.1067C18.2891 8.53279 24.4512 2.37109 32.0247 2.37109Z" fill="#016936"/>
</svg>
