<svg width="96" height="71" viewBox="0 0 96 71" fill="none" xmlns="http://www.w3.org/2000/svg">
<path d="M77.7187 22.436H71.6748L73.4958 1.52794C73.4992 1.49007 73.4997 1.45276 73.4999 1.41544C73.4999 1.41226 73.5003 1.40926 73.5003 1.40607C73.5003 1.40551 73.5003 1.40513 73.5003 1.40457C73.5003 0.835504 73.157 0.33394 72.6524 0.115876C72.6481 0.114001 72.644 0.111752 72.6397 0.109877C72.6084 0.0967515 72.5759 0.0855008 72.5433 0.0746258C72.5311 0.0706883 72.5195 0.065813 72.5073 0.062063C72.4807 0.0540005 72.4533 0.0476255 72.4261 0.041063C72.407 0.036563 72.3886 0.0311258 72.3693 0.0273758C72.3455 0.0226883 72.3207 0.0196887 72.2963 0.0161262C72.2735 0.0127512 72.251 0.00881312 72.2279 0.00675061C72.224 0.00637561 72.2204 0.005625 72.2165 0.00525C72.1917 0.00299999 72.1674 0.0033751 72.1428 0.0024376C72.1263 0.0018751 72.1102 0 72.0937 0H72.076C72.0745 0 72.073 0 72.0717 0H43.3145C42.5383 0 41.9083 0.630002 41.9083 1.40626C41.9083 2.18063 42.5383 2.81251 43.3145 2.81251H70.5608L67.7622 34.9454C67.7618 34.9479 67.7618 34.9503 67.7615 34.9528L67.0553 43.0605H18.1909L19.0083 34.6233H28.3122C29.0891 34.6233 29.7185 33.9937 29.7185 33.2171C29.7185 32.4404 29.0891 31.8108 28.3122 31.8108H19.2809L21.0066 13.9992H35.8145C36.5913 13.9992 37.2208 13.3696 37.2208 12.5929C37.2208 11.8163 36.5913 11.1867 35.8145 11.1867H21.2793L22.0908 2.81251H37.6895C38.4639 2.81251 39.0958 2.18063 39.0958 1.40626C39.0958 0.630002 38.4639 0 37.6895 0H20.8145C20.8137 0 20.8131 0.000187398 20.8124 0.000187398C20.1518 -1.03006e-07 19.5788 0.465003 19.4403 1.10963C19.4393 1.11432 19.4376 1.11882 19.4367 1.12351C19.4296 1.15857 19.4249 1.19438 19.4202 1.23038C19.4189 1.24182 19.4165 1.25269 19.4153 1.26413C19.4151 1.26638 19.4146 1.26844 19.4144 1.27069L18.4536 11.1867H1.40626C0.62944 11.1867 0 11.8163 0 12.5929C0 13.3696 0.62944 13.9992 1.40626 13.9992H18.181L16.4553 31.8108H11.4379C10.6611 31.8108 10.0317 32.4404 10.0317 33.2171C10.0317 33.9937 10.6611 34.6233 11.4379 34.6233H16.1828L15.2431 44.321C15.2429 44.3225 15.2429 44.324 15.2427 44.3254L13.7897 59.3215C13.7896 59.3232 13.7894 59.325 13.7892 59.3265L13.7886 59.332C13.7867 59.3515 13.7869 59.3706 13.7858 59.3901C13.7845 59.416 13.7819 59.4413 13.7819 59.4675C13.7819 59.4687 13.7821 59.4698 13.7821 59.4711C13.7821 59.5073 13.7847 59.5429 13.7873 59.5785C13.7884 59.59 13.7881 59.6016 13.7894 59.6129C13.7931 59.6492 13.7993 59.685 13.8059 59.7207C13.8077 59.7312 13.8087 59.7419 13.8107 59.7522C13.8162 59.7792 13.8239 59.8052 13.831 59.8317C13.8359 59.8502 13.8398 59.8692 13.8454 59.8874C13.8471 59.8924 13.8494 59.8973 13.8509 59.9025C13.9189 60.1118 14.0344 60.2997 14.1852 60.453C14.188 60.4559 14.1902 60.459 14.1931 60.4617C14.2081 60.4767 14.2244 60.4902 14.2401 60.5044C14.3371 60.5933 14.4466 60.6687 14.5664 60.7277C14.5913 60.7401 14.6159 60.753 14.6414 60.7637C14.6491 60.7671 14.6573 60.7694 14.6652 60.7724C14.7004 60.7864 14.7359 60.7999 14.7724 60.8114C14.7758 60.8123 14.779 60.8129 14.7824 60.814C14.824 60.8264 14.866 60.8372 14.9089 60.846C14.9146 60.8472 14.9204 60.8475 14.9258 60.8487C14.9667 60.8564 15.0077 60.8629 15.0496 60.867C15.0505 60.867 15.0512 60.8672 15.0522 60.8674C15.0983 60.8719 15.1441 60.8742 15.1894 60.8742C15.19 60.8742 15.1907 60.874 15.1915 60.874H21.4518C22.1431 66.1152 26.6365 70.1746 32.0638 70.1746C37.4906 70.1746 41.984 66.1152 42.6754 60.874H65.2315C65.923 66.1152 70.4163 70.1746 75.8433 70.1746C81.2701 70.1746 85.764 66.1152 86.4555 60.874H92.7172C92.7182 60.874 92.7193 60.8742 92.7202 60.8742C92.7671 60.8742 92.8132 60.8714 92.859 60.8669C92.8672 60.8661 92.8751 60.8644 92.8834 60.8635C92.9199 60.8592 92.9563 60.8541 92.9919 60.847C93.0073 60.844 93.0221 60.8399 93.0373 60.8363C93.0649 60.8299 93.0926 60.8232 93.1196 60.8151C93.138 60.8097 93.1558 60.8033 93.1738 60.7971C93.1969 60.7892 93.2199 60.781 93.2426 60.7718C93.2621 60.7641 93.2807 60.7557 93.2996 60.7472C93.3202 60.7377 93.3409 60.7279 93.3609 60.7176C93.3801 60.7079 93.3984 60.6977 93.4168 60.6872C93.4361 60.676 93.4552 60.6644 93.4742 60.6524C93.4918 60.6411 93.5094 60.6297 93.5263 60.6177C93.5454 60.6044 93.5636 60.5903 93.5822 60.576C93.5976 60.5639 93.6131 60.5519 93.6281 60.5391C93.6474 60.5228 93.6656 60.5057 93.684 60.4883C93.6967 60.4761 93.7101 60.4641 93.7224 60.4514C93.7419 60.4315 93.7605 60.4105 93.7791 60.3893C93.789 60.3779 93.7993 60.3668 93.8089 60.3552C93.8295 60.3297 93.8483 60.3034 93.867 60.277C93.8734 60.2678 93.8805 60.2592 93.8867 60.2498C93.9096 60.2155 93.9311 60.1802 93.951 60.1439C93.9525 60.1416 93.954 60.1395 93.9549 60.1371C93.9761 60.0981 93.9956 60.0582 94.0131 60.0169C94.0179 60.0051 94.0217 59.9929 94.0264 59.9811C94.0378 59.952 94.0491 59.923 94.0586 59.8928C94.0648 59.8733 94.0693 59.8532 94.0748 59.8335C94.0809 59.8101 94.0875 59.7869 94.0928 59.763C94.0974 59.7419 94.1004 59.7201 94.104 59.6985C94.1072 59.6796 94.1113 59.661 94.1137 59.6417C94.1734 59.164 95.2746 50.3291 95.7664 44.6164C95.7669 44.6109 95.7671 44.6053 95.7677 44.5999C95.9093 42.953 96 41.5663 96 40.7173C96 30.6371 87.7991 22.436 77.7187 22.436ZM71.4297 25.2488H77.1828L76.448 33.6856H70.6949L71.4297 25.2488ZM32.0641 67.3619C27.7109 67.3619 24.1694 63.8204 24.1694 59.4674C24.1694 55.1143 27.7111 51.5728 32.0641 51.5728C36.4171 51.5728 39.9587 55.1143 39.9587 59.4674C39.9587 63.8204 36.4171 67.3619 32.0641 67.3619ZM75.8433 67.3619C71.4903 67.3619 67.949 63.8204 67.949 59.4674C67.949 55.1143 71.4905 51.5728 75.8433 51.5728C80.1965 51.5728 83.738 55.1143 83.738 59.4674C83.738 63.8204 80.1965 67.3619 75.8433 67.3619ZM91.4747 58.0605H86.4558C85.7647 52.819 81.2711 48.7594 75.8437 48.7594C70.4166 48.7594 65.923 52.8191 65.2319 58.0605H42.6759C41.9848 52.819 37.4913 48.7594 32.0641 48.7594C26.6369 48.7594 22.1431 52.8191 21.452 58.0605H16.7374L17.9185 45.8722H68.344V45.873C68.3448 45.873 68.3453 45.873 68.3461 45.873C68.3931 45.873 68.4398 45.8704 68.486 45.8657C68.4946 45.8649 68.503 45.8631 68.5117 45.8619C68.5484 45.8576 68.585 45.8524 68.621 45.8452C68.6365 45.8421 68.6517 45.8377 68.6671 45.834C68.6952 45.8272 68.7233 45.8207 68.7507 45.8124C68.7695 45.8068 68.7873 45.8001 68.8055 45.7937C68.8291 45.7854 68.8527 45.7774 68.8756 45.768C68.8953 45.7599 68.9142 45.7509 68.9333 45.7419C68.9541 45.7324 68.975 45.7228 68.995 45.7123C69.0141 45.7022 69.0329 45.6913 69.0518 45.6804C69.0712 45.6692 69.0903 45.6577 69.109 45.6457C69.1272 45.6339 69.1445 45.6216 69.1619 45.6092C69.1805 45.5961 69.1985 45.5826 69.2165 45.5685C69.2326 45.5556 69.2485 45.5422 69.2643 45.5285C69.2821 45.5132 69.2995 45.4974 69.3164 45.4811C69.3307 45.4674 69.3449 45.4534 69.3588 45.4389C69.3756 45.4213 69.392 45.4031 69.4081 45.3845C69.4206 45.3699 69.433 45.3553 69.445 45.3403C69.4606 45.3206 69.4754 45.3004 69.49 45.2799C69.5011 45.2646 69.5118 45.2492 69.5223 45.2334C69.536 45.2122 69.5491 45.1905 69.5616 45.1684C69.5712 45.1519 69.581 45.1354 69.5896 45.1185C69.6014 45.0964 69.6115 45.0739 69.6222 45.0512C69.6305 45.033 69.6389 45.0152 69.6464 44.9964C69.6556 44.9743 69.6633 44.9516 69.6713 44.9289C69.6783 44.9089 69.6856 44.8888 69.6918 44.8682C69.698 44.8464 69.703 44.8241 69.7087 44.802C69.7141 44.7797 69.7201 44.7575 69.7244 44.7349C69.7287 44.7127 69.7313 44.6902 69.7347 44.6677C69.7381 44.6445 69.742 44.6216 69.7443 44.598C69.7447 44.5946 69.7454 44.5914 69.7456 44.5881L70.4504 36.4974H77.7183C82.0269 36.4974 83.9701 38.7298 86.0272 41.0934C87.7247 43.0436 89.6197 45.2196 92.841 45.7504C92.4319 50.076 91.7706 55.629 91.4747 58.0605ZM93.0814 42.9322C90.9917 42.5062 89.706 41.0372 88.1484 39.2477C86.2005 37.0098 83.8224 34.2789 79.2637 33.77L79.9912 25.4172C87.447 26.5199 93.1875 32.9602 93.1875 40.7177C93.1875 41.2447 93.1481 42.0105 93.0814 42.9322Z" fill="#084A41"/>
<path d="M32.0645 54.3105C29.2214 54.3105 26.9082 56.6236 26.9082 59.4668C26.9082 62.3101 29.2214 64.6231 32.0645 64.6231C34.9075 64.6231 37.2207 62.3101 37.2207 59.4668C37.2207 56.6237 34.9075 54.3105 32.0645 54.3105ZM32.0645 61.8106C30.772 61.8106 29.7207 60.7593 29.7207 59.4668C29.7207 58.1744 30.772 57.1231 32.0645 57.1231C33.3569 57.1231 34.4082 58.1744 34.4082 59.4668C34.4082 60.7593 33.3567 61.8106 32.0645 61.8106Z" fill="#FEC52F"/>
<path d="M75.8438 54.3105C73.0007 54.3105 70.6875 56.6236 70.6875 59.4668C70.6875 62.3101 73.0007 64.6231 75.8438 64.6231C78.6868 64.6231 81 62.3101 81 59.4668C81 56.6237 78.6868 54.3105 75.8438 54.3105ZM75.8438 61.8106C74.5513 61.8106 73.5 60.7593 73.5 59.4668C73.5 58.1744 74.5513 57.1231 75.8438 57.1231C77.1362 57.1231 78.1875 58.1744 78.1875 59.4668C78.1875 60.7593 77.1362 61.8106 75.8438 61.8106Z" fill="#FEC52F"/>
<path d="M13.3124 22.4355H6.43751C5.66069 22.4355 5.03125 23.0652 5.03125 23.8418C5.03125 24.6184 5.66069 25.2481 6.43751 25.2481H13.3124C14.0892 25.2481 14.7187 24.6184 14.7187 23.8418C14.7187 23.0652 14.0892 22.4355 13.3124 22.4355Z" fill="#FEC52F"/>
</svg>
