<svg width="94" height="94" viewBox="0 0 94 94" fill="none" xmlns="http://www.w3.org/2000/svg">
<g clip-path="url(#clip0)">
<path d="M-1.71203e-06 40.7338L-3.42408e-07 72.067C-1.53601e-07 76.3864 3.51398 79.9004 7.8334 79.9004L64.2334 79.9004C68.5526 79.9004 72.0668 76.3864 72.0668 72.067L72.0668 43.867L68.9334 43.867L68.9334 72.067C68.9334 74.6582 66.8246 76.767 64.2334 76.767L7.8334 76.767C5.24215 76.767 3.13339 74.6582 3.13339 72.067L3.13339 40.7336C3.13339 38.1424 5.24215 36.0336 7.83339 36.0336L53.2668 36.0336L53.2668 32.9004L7.83339 32.9004C3.51398 32.9004 -1.90083e-06 36.4144 -1.71203e-06 40.7338Z" fill="#084A41"/>
<path d="M43.5933 20.206L43.5928 20.2065L27.947 32.85L24.4069 32.85L41.8259 17.99C44.8461 15.576 48.6381 14.2486 52.5012 14.2502L52.5012 14.2502L92.434 14.2502C93.2175 14.2502 93.8506 14.8833 93.8506 15.6668L93.8506 40.1538C93.8506 49.8923 85.9261 57.8168 76.1876 57.8168L72.15 57.8168L72.15 55.628L76.1995 54.9834C84.3717 54.9769 91.0172 48.326 91.0172 40.1538L91.0172 17.2336L91.0172 17.0836L90.8672 17.0836L52.4996 17.0836C52.4996 17.0836 52.4996 17.0836 52.4996 17.0836C49.2743 17.0821 46.111 18.1903 43.5933 20.206Z" fill="#084A41" stroke="#EFF3D5" stroke-width="0.3"/>
<path d="M36.7967 53.2692L36.7967 53.2692C36.8292 52.1298 37.3034 51.0689 38.1315 50.288L38.1316 50.2879L60.3943 29.3361L58.4521 27.272L36.1878 48.2267C36.1878 48.2267 36.1877 48.2268 36.1877 48.2268C34.8082 49.5296 34.0184 51.292 33.9647 53.1885L33.9646 53.1893C33.9003 55.1046 34.5973 56.8874 35.884 58.2499C35.8926 58.2586 35.9127 58.2796 35.9348 58.3026C35.9435 58.3116 35.9524 58.321 35.9612 58.3301L36.0083 58.3789C36.0237 58.3947 36.0304 58.4013 36.0303 58.4012L36.0358 58.4061L36.0356 58.4063C38.6657 61.0286 42.7921 61.2053 45.6435 58.8129C45.6436 58.8129 45.6437 58.8128 45.6438 58.8127L61.5763 45.3194L61.6183 45.2838L61.6732 45.2838L66.5205 45.2838C75.0653 45.2855 82.8223 39.9427 85.8741 31.9713L83.2206 30.9768C80.5808 37.8482 73.8899 42.4521 66.5204 42.4506L61.0999 42.4506C60.7656 42.4506 60.4396 42.5697 60.1832 42.7863L36.7967 53.2692ZM36.7967 53.2692L36.7967 53.2726C36.79 54.4106 37.1768 55.4923 37.9609 56.3217L37.9608 56.3218L37.9639 56.3248C39.6167 57.9761 42.1032 58.0849 43.8157 56.6469L43.8162 56.6465L60.1831 42.7864L36.7967 53.2692Z" fill="#084A41" stroke="#EFF3D5" stroke-width="0.3"/>
<path d="M3.13379 42.3002L3.13379 45.4336L42.3004 45.4336L42.3004 42.3002L3.13379 42.3002Z" fill="#084A41"/>
<path d="M51.7002 50.1322L51.7002 53.2656L70.5002 53.2656L70.5002 50.1322L51.7002 50.1322Z" fill="#084A41"/>
<path d="M1.56641 50.1322L1.56641 53.2656L36.033 53.2656L36.033 50.1322L1.56641 50.1322Z" fill="#084A41"/>
<path d="M7.83301 68.933L7.83301 72.0664L28.1996 72.0664L28.1996 68.933L7.83301 68.933Z" fill="#FEC52F"/>
<path d="M7.83301 61.101L7.83301 64.2344L20.3664 64.2344L20.3664 61.101L7.83301 61.101Z" fill="#FEC52F"/>
<path d="M51.7002 61.0998L51.7002 70.4998C51.7002 71.3645 52.4004 72.0664 53.2668 72.0664L62.6668 72.0664C63.5332 72.0664 64.2334 71.3645 64.2334 70.4998L64.2334 61.0998C64.2334 60.2351 63.5332 59.5332 62.6668 59.5332L53.2668 59.5332C52.4004 59.5332 51.7002 60.2351 51.7002 61.0998ZM61.1002 62.6664L61.1002 68.933L54.8336 68.933L54.8336 62.6664L61.1002 62.6664Z" fill="#FEC52F"/>
</g>
<defs>
<clipPath id="clip0">
<rect width="94" height="94" fill="white" transform="translate(0 94) rotate(-90)"/>
</clipPath>
</defs>
</svg>
